<?xml version="1.0" encoding="utf-8"?>
<!-- Generator: Adobe Illustrator 16.0.0, SVG Export Plug-In . SVG Version: 6.00 Build 0)  -->
<!DOCTYPE svg PUBLIC "-//W3C//DTD SVG 1.1//EN" "http://www.w3.org/Graphics/SVG/1.1/DTD/svg11.dtd">
<svg version="1.1" id="Layer_1" xmlns="http://www.w3.org/2000/svg" xmlns:xlink="http://www.w3.org/1999/xlink" x="0px" y="0px"
	 width="200px" height="200px" viewBox="0 0 200 200" enable-background="new 0 0 200 200" xml:space="preserve">
<g>
	<path fill="#FFFFFF" d="M194.831,145.252c0,5.5-4.411,9.111-9.803,8.025L46.696,125.398c-5.392-1.086-14.303-1.975-19.803-1.975
		h-11.79c-5.5,0-10-4.5-10-10V70.622c0-5.5,4.5-10,10-10h11.79c5.5,0,14.414-0.875,19.809-1.944l138.319-27.415
		c5.396-1.069,9.81,2.556,9.81,8.056V145.252z"/>
	<path fill="none" stroke="#F95A06" stroke-width="10" stroke-miterlimit="10" d="M194.831,145.252c0,5.5-4.411,9.111-9.803,8.025
		L46.696,125.398c-5.392-1.086-14.303-1.975-19.803-1.975h-11.79c-5.5,0-10-4.5-10-10V70.622c0-5.5,4.5-10,10-10h11.79
		c5.5,0,14.414-0.875,19.809-1.944l138.319-27.415c5.396-1.069,9.81,2.556,9.81,8.056V145.252z"/>
</g>
<line fill="none" stroke="#F95A06" stroke-width="5" stroke-miterlimit="10" x1="36.968" y1="60.908" x2="36.968" y2="123.064"/>
<line fill="none" stroke="#F95A06" stroke-width="5" stroke-miterlimit="10" x1="174.63" y1="33.323" x2="174.63" y2="146.061"/>
<g>
	<path fill="none" stroke="#F95A06" stroke-width="10" stroke-miterlimit="10" d="M125.928,147.115l-5.515,26.623
		c-1.115,5.385-6.435,8.879-11.82,7.764l-51.271-10.619c-5.386-1.115-8.879-6.434-7.764-11.82l5.513-26.627"/>
</g>
<g>
	<path fill="none" stroke="#F95A06" stroke-width="10" stroke-miterlimit="10" d="M105.499,136.729l-4.014,19.369
		c-0.056,0.27-0.322,0.443-0.591,0.389l-27.575-5.711c-0.27-0.055-0.444-0.322-0.388-0.59l4.014-19.373"/>
</g>
<line opacity="0" fill="none" stroke="#F95A06" stroke-width="5" stroke-linecap="round" stroke-miterlimit="10" x1="213.752" y1="79.162" x2="242.358" y2="50.56"/>
<line opacity="0" fill="none" stroke="#F95A06" stroke-width="5" stroke-linecap="round" stroke-miterlimit="10" x1="227.442" y1="112.2" x2="268.26" y2="112.2"/>
<line opacity="0" fill="none" stroke="#F95A06" stroke-width="5" stroke-linecap="round" stroke-miterlimit="10" x1="213.752" y1="145.236" x2="242.755" y2="174.237"/>
</svg>
