<?xml version="1.0" encoding="utf-8"?>
<!-- Generator: Adobe Illustrator 16.0.0, SVG Export Plug-In . SVG Version: 6.00 Build 0)  -->
<!DOCTYPE svg PUBLIC "-//W3C//DTD SVG 1.1//EN" "http://www.w3.org/Graphics/SVG/1.1/DTD/svg11.dtd">
<svg version="1.1" id="Layer_1" xmlns="http://www.w3.org/2000/svg" xmlns:xlink="http://www.w3.org/1999/xlink" x="0px" y="0px"
	 width="70px" height="70px" viewBox="0 0 70 70" enable-background="new 0 0 70 70" xml:space="preserve">
<g>
	<rect x="0.125" y="0.229" fill="none" width="69.809" height="69.809"/>
</g>
<g>
	<path fill="#F95A06" d="M59.533,19.221L18.284,60.47c-2.361,2.361-6.191,2.36-8.552,0c-2.36-2.361-2.36-6.19,0-8.552L50.98,10.669
		c2.361-2.361,6.191-2.36,8.553,0C61.894,13.03,61.895,16.86,59.533,19.221z"/>
	<path fill="#F95A06" d="M9.732,51.918L59.63,2.019c2.361-2.361,6.191-2.36,8.553,0c2.36,2.361,2.361,6.191,0,8.552L18.284,60.47"/>
	<path fill="#F95A06" d="M59.533,19.221L10.584,68.17c-2.361,2.361-6.191,2.36-8.552,0c-2.36-2.361-2.36-6.191,0-8.553L50.98,10.669
		"/>
	<path fill="#F95A06" d="M68.183,10.571L10.584,68.17"/>
	<path fill="#F95A06" d="M2.032,59.617L59.63,2.019"/>
</g>
<g>
	<path fill="#F95A06" d="M19.234,10.669l41.249,41.249c2.36,2.361,2.36,6.191,0,8.552c-2.362,2.36-6.19,2.36-8.553,0L10.683,19.221
		c-2.361-2.361-2.36-6.191,0-8.552C13.043,8.309,16.874,8.308,19.234,10.669z"/>
	<path fill="#F95A06" d="M51.931,60.47L2.032,10.572c-2.361-2.361-2.36-6.191,0-8.552c2.361-2.36,6.191-2.361,8.552,0l49.899,49.898
		"/>
	<path fill="#F95A06" d="M19.234,10.669l48.948,48.948c2.362,2.361,2.36,6.191,0,8.553s-6.191,2.361-8.552,0L10.683,19.221"/>
	<path fill="#F95A06" d="M10.584,2.02l57.598,57.598"/>
	<path fill="#F95A06" d="M59.631,68.17L2.032,10.572"/>
</g>
</svg>
