<?xml version="1.0" encoding="utf-8"?>
<!-- Generator: Adobe Illustrator 16.0.0, SVG Export Plug-In . SVG Version: 6.00 Build 0)  -->
<!DOCTYPE svg PUBLIC "-//W3C//DTD SVG 1.1//EN" "http://www.w3.org/Graphics/SVG/1.1/DTD/svg11.dtd">
<svg version="1.1" id="Layer_1" xmlns="http://www.w3.org/2000/svg" xmlns:xlink="http://www.w3.org/1999/xlink" x="0px" y="0px"
	 width="70px" height="70px" viewBox="0 0 70 70" enable-background="new 0 0 70 70" xml:space="preserve">
<g>
	<path fill="#F95A06" d="M63.971,40.961H6.092c-3.313,0-6-2.687-6-6s2.687-6,6-6h57.879c3.313,0,6,2.687,6,6
		S67.284,40.961,63.971,40.961z"/>
</g>
<g>
	<path fill="#F95A06" d="M63.971,69.961H6.092c-3.313,0-6-2.687-6-6s2.687-6,6-6h57.879c3.313,0,6,2.687,6,6
		S67.284,69.961,63.971,69.961z"/>
</g>
<g>
	<path fill="#F95A06" d="M63.971,12.25H6.092c-3.313,0-6-2.687-6-6s2.687-6,6-6h57.879c3.313,0,6,2.687,6,6
		S67.284,12.25,63.971,12.25z"/>
</g>
<g>
	<rect x="0.125" y="0.229" fill="none" width="69.809" height="69.809"/>
</g>
</svg>
