<?xml version="1.0" encoding="utf-8"?>
<!-- Generator: Adobe Illustrator 16.0.0, SVG Export Plug-In . SVG Version: 6.00 Build 0)  -->
<!DOCTYPE svg PUBLIC "-//W3C//DTD SVG 1.1//EN" "http://www.w3.org/Graphics/SVG/1.1/DTD/svg11.dtd">
<svg version="1.1" id="Layer_1" xmlns="http://www.w3.org/2000/svg" xmlns:xlink="http://www.w3.org/1999/xlink" x="0px" y="0px"
	 width="500px" height="100px" viewBox="0 0 500 100" enable-background="new 0 0 500 100" xml:space="preserve">
<g>
	<path fill="#F95A06" d="M13.71,65.731c0,3.203,2.31,4.807,6.932,4.807c4.62,0,6.931-1.439,6.931-4.32
		c0-1.532-0.79-2.785-2.368-3.761c-1.58-0.976-3.495-1.787-5.747-2.438c-2.253-0.649-4.505-1.404-6.757-2.264
		c-2.253-0.859-4.168-2.205-5.747-4.04c-1.579-1.835-2.368-4.122-2.368-6.862c0-11.656,7.499-17.484,22.5-17.484
		c5.479,0,9.624,1.034,12.434,3.1c2.809,2.067,4.215,4.936,4.215,8.603c0,1.348-0.174,2.637-0.523,3.866
		c-0.348,1.232-0.708,2.103-1.08,2.613l-0.557,0.836h-12.33c1.021-1.067,1.533-2.414,1.533-4.041c0-3.018-1.974-4.527-5.921-4.527
		c-4.97,0-7.454,1.579-7.454,4.736c0,1.58,0.789,2.834,2.369,3.763c1.578,0.93,3.494,1.66,5.747,2.193
		c2.252,0.535,4.516,1.196,6.792,1.985c2.274,0.79,4.202,2.102,5.782,3.937c1.578,1.835,2.368,4.214,2.368,7.141
		c0,5.897-1.765,10.274-5.294,13.13c-3.529,2.856-8.963,4.284-16.3,4.284c-7.338,0-12.354-1.299-15.046-3.901
		c-1.998-1.95-2.995-4.644-2.995-8.08c0-1.3,0.139-2.717,0.417-4.249l0.209-1.115h12.539l-0.14,0.836
		C13.756,64.942,13.71,65.359,13.71,65.731z"/>
	<path fill="#F95A06" d="M56.412,80.986c-4.319,0-7.384-1.161-9.195-3.483c-1.254-1.625-1.881-3.737-1.881-6.339
		c0-1.114,0.116-2.344,0.349-3.691l1.463-8.15c0.742-4.18,2.449-7.512,5.12-9.996c2.669-2.484,6.152-3.727,10.449-3.727
		c4.295,0,7.21,0.999,8.742,2.994l0.349-2.089h10.519l-9.334,52.871H61.149l3.831-21.524C62.612,79.941,59.756,80.986,56.412,80.986
		z M57.805,65.94c-0.093,0.417-0.139,0.999-0.139,1.741c0,0.743,0.348,1.474,1.045,2.194s1.869,1.08,3.518,1.08
		c1.648,0,3.076-0.65,4.284-1.951l2.09-11.703c-0.512-1.16-1.718-1.741-3.622-1.741c-3.577,0-5.667,1.719-6.27,5.155L57.805,65.94z"
		/>
	<path fill="#F95A06" d="M117.991,69.283c0,1.208,0.615,1.812,1.846,1.812c1.23,0,2.264-0.232,3.1-0.696l-0.348,7.871
		c-2.229,1.812-4.737,2.717-7.523,2.717c-5.249,0-8.105-2.021-8.568-6.061c-2.786,4.04-6.537,6.061-11.25,6.061
		s-7.767-1.067-9.16-3.204c-0.93-1.347-1.393-2.879-1.393-4.598c0-1.718,0.139-3.297,0.417-4.736l3.901-21.943h11.842l-3.274,18.529
		c-0.14,0.836-0.209,1.672-0.209,2.508c0,2.229,1.254,3.344,3.762,3.344c2.09,0,3.762-0.719,5.016-2.16l3.97-22.221h11.842
		l-3.901,21.943C118.014,68.726,117.991,69.005,117.991,69.283z"/>
	<path fill="#F95A06" d="M141.327,80.986c-9.66,0-14.49-3.344-14.49-10.03c0-0.929,0.093-1.927,0.279-2.996l1.463-8.638
		c0.79-4.458,2.844-7.883,6.165-10.274c3.319-2.393,7.72-3.588,13.2-3.588c9.335,0,14.002,3.529,14.002,10.588
		c0,1.022-0.093,2.137-0.278,3.344l-0.836,4.946h-21.246l-0.279,1.603c-0.093,0.557-0.139,1.068-0.139,1.532
		c0,2.555,1.508,3.83,4.528,3.83c1.115,0,2.066-0.347,2.856-1.044c0.789-0.697,1.254-1.509,1.393-2.438l11.564,0.14
		C157.975,76.645,151.915,80.986,141.327,80.986z M149.686,60.089c0.185-0.789,0.279-1.521,0.279-2.195
		c0-0.672-0.303-1.358-0.905-2.054c-0.604-0.697-1.567-1.046-2.891-1.046s-2.532,0.442-3.622,1.323
		c-1.092,0.884-1.846,2.207-2.265,3.972H149.686z"/>
	<path fill="#F95A06" d="M179.778,80.986c-9.66,0-14.49-3.344-14.49-10.03c0-0.929,0.093-1.927,0.279-2.996l1.463-8.638
		c0.789-4.458,2.844-7.883,6.165-10.274c3.319-2.393,7.72-3.588,13.2-3.588c9.334,0,14.002,3.529,14.002,10.588
		c0,1.022-0.093,2.137-0.278,3.344l-0.836,4.946h-21.246l-0.279,1.603c-0.093,0.557-0.139,1.068-0.139,1.532
		c0,2.555,1.508,3.83,4.528,3.83c1.115,0,2.066-0.347,2.856-1.044c0.789-0.697,1.254-1.509,1.393-2.438l11.563,0.14
		C196.426,76.645,190.366,80.986,179.778,80.986z M188.137,60.089c0.185-0.789,0.279-1.521,0.279-2.195
		c0-0.672-0.303-1.358-0.905-2.054c-0.604-0.697-1.568-1.046-2.891-1.046c-1.324,0-2.532,0.442-3.623,1.323
		c-1.092,0.884-1.846,2.207-2.264,3.972H188.137z"/>
	<path fill="#F95A06" d="M233.485,80.011h-31.278l1.742-9.752l19.644-14.002h-17.206l1.742-9.752h31.277l-1.742,9.752
		l-19.017,14.002h16.579L233.485,80.011z"/>
	<path fill="#F95A06" d="M255.147,65.034c-0.139,0.836-0.209,1.672-0.209,2.508c0,2.229,1.255,3.344,3.763,3.344
		c2.042,0,3.737-0.719,5.085-2.16l3.9-22.221h11.842l-6.13,34.621c-1.021,5.897-3.355,10.564-7.001,14.001
		s-7.813,5.155-12.503,5.155c-4.692,0-8.07-0.859-10.136-2.577c-2.066-1.719-3.1-3.971-3.1-6.757c0-3.948,2.438-7.454,7.314-10.519
		c-2.647-0.65-4.319-1.975-5.016-3.972c-0.418-1.114-0.627-2.368-0.627-3.761c0-1.395,0.116-2.81,0.349-4.249l3.901-21.943h11.842
		L255.147,65.034z M255.496,90.321c3.019,0,4.992-2.741,5.922-8.221l0.695-4.04c-6.455,3.019-9.683,6.061-9.683,9.125
		c0,0.929,0.268,1.684,0.801,2.265C253.766,90.03,254.521,90.321,255.496,90.321z"/>
	<path fill="#F95A06" d="M313.104,80.011h-31.766l8.848-50.155h12.539l-6.896,39.288h19.226L313.104,80.011z"/>
	<path fill="#F95A06" d="M332.958,80.986c-9.66,0-14.489-3.344-14.489-10.03c0-0.929,0.093-1.927,0.277-2.996l1.464-8.638
		c0.789-4.458,2.845-7.883,6.165-10.274c3.319-2.393,7.721-3.588,13.2-3.588c9.335,0,14.002,3.529,14.002,10.588
		c0,1.022-0.094,2.137-0.278,3.344l-0.837,4.946h-21.245l-0.279,1.603c-0.094,0.557-0.139,1.068-0.139,1.532
		c0,2.555,1.508,3.83,4.527,3.83c1.114,0,2.066-0.347,2.856-1.044c0.789-0.697,1.253-1.509,1.393-2.438l11.564,0.14
		C349.606,76.645,343.546,80.986,332.958,80.986z M341.317,60.089c0.185-0.789,0.277-1.521,0.277-2.195
		c0-0.672-0.302-1.358-0.904-2.054c-0.604-0.697-1.567-1.046-2.892-1.046c-1.323,0-2.531,0.442-3.622,1.323
		c-1.092,0.884-1.846,2.207-2.265,3.972H341.317z"/>
	<path fill="#F95A06" d="M415.017,71.095c1.067,0,2.021-0.232,2.855-0.696l-0.348,7.871c-2.184,1.812-4.668,2.717-7.453,2.717
		c-6.317,0-9.475-2.646-9.475-7.941c0-0.928,0.093-1.926,0.278-2.995l1.464-8.568c0.14-0.836,0.209-1.672,0.209-2.508
		c0-2.229-1.22-3.343-3.658-3.343s-4.353,0.952-5.747,2.855l-3.761,21.524h-11.843l3.274-18.529
		c0.139-0.836,0.209-1.672,0.209-2.508c0-2.229-1.254-3.343-3.762-3.343c-1.997,0-3.716,0.766-5.154,2.298l-3.901,22.082h-11.842
		l5.92-33.506h11.007l-0.767,4.18c2.786-3.437,6.315-5.155,10.589-5.155c6.036,0,9.474,1.998,10.31,5.99
		c2.786-3.992,6.513-5.99,11.18-5.99c4.668,0,7.698,1.045,9.091,3.135c0.929,1.44,1.395,3.02,1.395,4.737
		c0,1.719-0.117,3.273-0.349,4.667l-1.742,10.38c-0.046,0.277-0.07,0.534-0.07,0.766C412.926,70.468,413.623,71.095,415.017,71.095z
		"/>
	<path fill="#F95A06" d="M442.81,45.529c5.016,0,8.8,1.092,11.354,3.273c1.996,1.719,2.995,4.111,2.995,7.176
		c0,1.022-0.116,2.136-0.348,3.344l-1.464,8.15c-0.882,4.923-2.938,8.405-6.164,10.449c-3.229,2.043-7.535,3.064-12.922,3.064
		c-5.389,0-9.335-1.021-11.843-3.064c-1.858-1.533-2.786-3.832-2.786-6.896c0-1.067,0.115-2.253,0.348-3.553l1.464-8.15
		C425.068,50.127,431.524,45.529,442.81,45.529z M444.689,60.716c0.094-0.465,0.14-1.057,0.14-1.776s-0.302-1.521-0.905-2.404
		c-0.604-0.881-1.661-1.323-3.17-1.323c-1.51,0-2.774,0.5-3.797,1.498c-1.021,0.999-1.671,2.333-1.95,4.006l-0.904,5.225
		c-0.095,0.464-0.14,1.056-0.14,1.775c0,0.721,0.302,1.498,0.905,2.334s1.659,1.253,3.17,1.253c1.509,0,2.773-0.521,3.797-1.566
		c1.021-1.045,1.671-2.311,1.95-3.796L444.689,60.716z"/>
	<path fill="#F95A06" d="M483.701,58.625c0-1.995-0.965-2.994-2.892-2.994c-1.928,0-3.518,0.72-4.771,2.159l-3.901,22.221h-11.842
		l5.92-33.506h11.007l-0.767,4.11c2.74-3.391,6.2-5.086,10.38-5.086s6.896,1.022,8.15,3.064c0.789,1.302,1.185,2.787,1.185,4.459
		s-0.117,3.229-0.349,4.667l-1.882,10.729c-0.046,0.277-0.069,0.534-0.069,0.766c0,1.254,0.697,1.881,2.091,1.881
		c1.067,0,2.02-0.232,2.856-0.696l-0.349,7.871c-2.184,1.812-4.667,2.717-7.454,2.717c-6.316,0-9.474-2.646-9.474-7.941
		c0-0.928,0.093-1.926,0.278-2.995l1.673-9.265C483.631,59.949,483.701,59.229,483.701,58.625z"/>
</g>
<g>
	<path fill="#F95A06" d="M87.008,9.247H75.699l-4.551,25.929h-8.321l4.551-25.929H56.022l1.287-7.172h30.986L87.008,9.247z"/>
	<path fill="#F95A06" d="M110.225,29.291c0.705,0,1.333-0.153,1.885-0.459l-0.23,5.195c-1.441,1.195-3.08,1.793-4.919,1.793
		c-4.168,0-6.252-1.747-6.252-5.241c0-0.613,0.061-1.271,0.184-1.977l1.011-5.654c0.092-0.552,0.138-1.104,0.138-1.655
		c0-1.471-0.774-2.207-2.321-2.207c-1.548,0-2.752,0.521-3.609,1.563l-2.574,14.527h-7.816l6.161-34.894h7.815l-2.621,14.849
		c1.686-1.808,3.8-2.712,6.345-2.712c3.095,0,5.103,0.689,6.022,2.069c0.644,0.919,0.965,1.946,0.965,3.08
		c0,1.134-0.092,2.177-0.276,3.126l-1.242,6.85c-0.031,0.184-0.045,0.353-0.045,0.506C108.846,28.877,109.305,29.291,110.225,29.291
		z"/>
	<path fill="#F95A06" d="M124.108,35.819c-6.375,0-9.562-2.206-9.562-6.62c0-0.613,0.061-1.271,0.184-1.977l0.965-5.701
		c0.521-2.942,1.877-5.202,4.068-6.781c2.191-1.578,5.096-2.368,8.712-2.368c6.161,0,9.241,2.33,9.241,6.988
		c0,0.674-0.062,1.41-0.184,2.207l-0.552,3.264h-14.022l-0.184,1.058c-0.062,0.368-0.092,0.706-0.092,1.012
		c0,1.686,0.996,2.528,2.988,2.528c0.736,0,1.363-0.23,1.885-0.689c0.521-0.46,0.827-0.996,0.919-1.609l7.632,0.092
		C135.096,32.954,131.096,35.819,124.108,35.819z M129.625,22.027c0.123-0.521,0.184-1.003,0.184-1.448
		c0-0.444-0.2-0.896-0.598-1.356c-0.398-0.459-1.034-0.69-1.908-0.69s-1.671,0.292-2.391,0.874
		c-0.721,0.583-1.218,1.456-1.494,2.621H129.625z"/>
</g>
</svg>
