<?xml version="1.0" encoding="utf-8"?>
<!-- Generator: Adobe Illustrator 16.0.0, SVG Export Plug-In . SVG Version: 6.00 Build 0)  -->
<!DOCTYPE svg PUBLIC "-//W3C//DTD SVG 1.1//EN" "http://www.w3.org/Graphics/SVG/1.1/DTD/svg11.dtd">
<svg version="1.1" id="Layer_1" xmlns="http://www.w3.org/2000/svg" xmlns:xlink="http://www.w3.org/1999/xlink" x="0px" y="0px"
	 width="200px" height="60px" viewBox="0 0 200 60" enable-background="new 0 0 200 60" xml:space="preserve">
<g>
	<path fill="#CE1927" d="M17.833,6.713L3.041,59.195H0L13.982,9.55H1.418L2.23,6.713H17.833z M3.243,3.671l0.81-2.836h34.043
		l-0.811,2.836H3.243z M36.474,6.713l-0.81,2.837H23.102L9.321,59.195H6.283L20.872,6.713H36.474z M24.52,29.001
		c-0.273,0.408-0.543,0.879-0.812,1.418L18.237,51.09h-3.039l5.673-21.681c0.539-0.947,0.945-1.688,1.216-2.23
		c2.026-2.702,4.491-4.592,7.396-5.673c2.904-1.082,5.978-1.352,9.218-0.813l-0.404,2.837c-2.704-0.27-5.269,0.033-7.7,0.913
		C28.167,25.322,26.14,26.842,24.52,29.001z M37.89,26.366l-0.404,3.043c-1.62-0.135-3.139,0.033-4.558,0.505
		c-1.418,0.475-2.603,1.317-3.545,2.533L24.316,51.09h-3.039l5.269-19.656c1.08-1.891,2.666-3.274,4.762-4.154
		C33.4,26.404,35.594,26.097,37.89,26.366z M44.985,20.491L36.88,51.09h-3.041l8.107-30.599H44.985z M51.063,20.491L42.957,51.09
		h-3.039l8.105-30.599H51.063z M47.822,9.751l-2.024,7.702h-3.042l2.028-7.702H47.822z M53.902,9.751l-2.028,7.702h-3.039
		l2.024-7.702H53.902z M69.908,34.674l-0.809,2.84H50.254l0.809-2.84H69.908z M71.532,28.799l-0.813,2.836H52.076l0.812-2.836
		H71.532z M83.282,6.511h17.628l-0.809,2.836h-16.82c-1.082,0.135-2.126,0.64-3.14,1.519c-1.015,0.879-1.25,1.923-0.711,3.14
		c0.135,0.677,1.855,5,5.167,12.97c3.309,7.971,5.168,12.494,5.572,13.576c2.028,3.918,1.726,7.903-0.909,11.956
		s-6.182,6.077-10.639,6.077H57.75l1.014-2.837h19.859c3.375,0,6.077-1.553,8.105-4.659c2.024-3.105,2.294-6.212,0.809-9.321
		c-0.27-0.539-2.096-4.932-5.472-13.172c-3.375-8.24-5.201-12.697-5.471-13.374c-0.809-2.024-0.505-3.952,0.913-5.774
		c1.418-1.826,3.14-2.803,5.168-2.938C82.945,6.511,83.147,6.511,83.282,6.511z M83.484,0.43h19.051l-0.813,3.241H83.282
		c-3.11-0.131-5.774,1.186-8.005,3.952c-2.227,2.773-2.668,5.71-1.317,8.816c0.27,0.677,3.918,9.523,10.946,26.546
		c0.942,2.024,0.707,4.153-0.711,6.38c-1.419,2.23-3.278,3.346-5.572,3.346H59.576l0.808-2.837h18.239
		c1.347,0,2.395-0.64,3.14-1.927c0.741-1.28,0.913-2.463,0.509-3.544c-7.162-17.157-10.878-26.071-11.147-26.748
		c-1.755-4.188-1.216-8.139,1.624-11.855C75.584,2.088,79.162,0.299,83.484,0.43z M93.415,25.356h9.121L96.049,51.09h-3.244
		l5.879-22.897h-6.283L93.415,25.356z M106.588,9.751l-3.246,12.562h-9.119l0.813-3.038h6.08l2.43-9.524H106.588z M114.895,25.356
		l-1.014,2.836h-5.875l-5.879,22.897h-3.039l6.484-25.733H114.895z M106.381,22.313l3.244-12.562h3.039l-2.432,9.524h6.283
		l-0.813,3.038H106.381z M115.299,28.395c5.4-8.24,12.393-11.11,20.975-8.614c8.576,2.504,11.375,8.816,8.408,18.946l-3.039,12.363
		H138.6l3.244-13.172c2.564-8.509,0.305-13.644-6.787-15.402c-7.096-1.751-12.801,0.745-17.123,7.499
		c-0.543,0.678-1.287,2.197-2.23,4.558c-0.947,2.365-1.082,4.696-0.404,6.994c1.484,5.135,4.658,7.529,9.523,7.192
		s9.049-2.129,12.563-5.37l-1.822,7.701h-3.039l0.404-2.028c-3.918,2.298-7.938,3.076-12.057,2.332
		c-4.121-0.741-6.99-3.75-8.611-9.019c-0.813-2.972-0.609-5.875,0.605-8.712C114.082,30.827,114.895,29.072,115.299,28.395z
		 M120.365,31.635c3.105-4.86,7.326-7.057,12.664-6.586c5.336,0.476,7.527,3.683,6.586,9.625c-0.404,1.354-1.016,2.57-1.822,3.648
		c-0.813,1.081-1.76,2.163-2.838,3.244c-4.998,4.457-9.695,5.438-14.084,2.938C116.48,42.005,116.313,37.716,120.365,31.635z
		 M136.777,34.067c0.539-4.322-1.115-6.384-4.965-6.182c-3.852,0.206-6.855,1.994-9.016,5.37c-3.109,4.729-3.109,7.734,0,9.018
		c3.107,1.288,6.414,0.304,9.928-2.938c1.078-0.942,1.957-1.855,2.635-2.735c0.674-0.879,1.145-1.788,1.418-2.735V34.067z
		 M157.445,25.356l-6.688,25.733h-3.039l5.875-22.897h-6.277l0.807-2.836H157.445z M149.139,22.313l0.811-3.038h5.875l2.434-9.524
		h3.24l-3.24,12.562H149.139z M169.604,25.356l-0.809,2.836h-6.08l-5.674,22.897h-3.039l6.482-25.733H169.604z M161.295,22.313
		l3.242-12.562h3.041l-2.432,9.524h6.283l-1.014,3.038H161.295z M200,30.621c-0.139,4.596-0.744,7.57-1.826,8.917
		c0,0.135-1.217,0.202-3.645,0.202c-2.432,0-4.865,0-7.297,0h-6.078h-5.066c0.135,1.086,0.572,1.894,1.318,2.433
		c0.74,0.543,1.447,0.813,2.129,0.813c1.346-0.135,2.496-0.371,3.441-0.712c0.943-0.336,1.822-0.774,2.635-1.316
		c0.813,0,1.588,0,2.332,0c0.74,0,1.447,0,2.125,0c-1.352,1.489-2.836,2.634-4.457,3.446c-1.619,0.808-3.58,1.283-5.875,1.418
		c-2.027,0-3.682-0.741-4.965-2.23c-1.283-1.485-1.924-3.446-1.924-5.875c0-0.135,0.029-0.307,0.102-0.509
		c0.063-0.202,0.1-0.434,0.1-0.707h23.504l0.203-0.408c0.135-0.808,0.201-1.65,0.201-2.529c0-0.88,0.068-1.726,0.207-2.533
		c0.404-5.808-2.23-8.884-7.904-9.221c-5.672-0.337-10.268,1.385-13.777,5.168c-2.029,2.024-3.447,4.019-4.26,5.976
		c-0.807,1.961-1.211,3.548-1.211,4.764c-0.139,3.11,0.674,5.74,2.428,7.903c1.756,2.159,4.188,3.241,7.297,3.241
		c3.51-0.135,6.313-0.913,8.408-2.332c2.092-1.418,4.02-3.274,5.775-5.571c1.08,0,2.361,0,3.85,0
		c-0.135,0.135-0.605,0.744-1.418,1.822c-2.025,2.432-4.254,4.527-6.688,6.282c-2.432,1.759-5.744,2.635-9.928,2.635
		c-4.053,0.135-7.229-1.246-9.523-4.153c-2.301-2.904-3.379-6.246-3.244-10.029c0.135-5.269,2.668-9.897,7.6-13.883
		c4.93-3.981,9.963-5.572,15.096-4.76c3.918,0.539,6.617,1.924,8.105,4.153C199.256,25.251,200,27.784,200,30.621z M188.852,24.746
		c2.973,0.543,4.592,1.658,4.865,3.346c0.27,1.688,0.338,3.543,0.203,5.571c-10.539,0-17.09,0-19.654,0
		c0.27-0.812,0.707-1.586,1.318-2.331c0.605-0.741,1.316-1.52,2.125-2.331c1.619-1.755,3.445-2.968,5.471-3.645
		C185.207,24.679,187.098,24.477,188.852,24.746z M187.029,27.684c-2.971,0.476-5.268,1.456-6.889,2.938h10.941
		C191.352,28.192,190.002,27.212,187.029,27.684z"/>
</g>
</svg>
