<?xml version="1.0" encoding="utf-8"?>
<!-- Generator: Adobe Illustrator 16.0.0, SVG Export Plug-In . SVG Version: 6.00 Build 0)  -->
<!DOCTYPE svg PUBLIC "-//W3C//DTD SVG 1.1//EN" "http://www.w3.org/Graphics/SVG/1.1/DTD/svg11.dtd">
<svg version="1.1" id="Layer_1" xmlns="http://www.w3.org/2000/svg" xmlns:xlink="http://www.w3.org/1999/xlink" x="0px" y="0px"
	 width="250px" height="48px" viewBox="0 0 250 48" enable-background="new 0 0 250 48" xml:space="preserve">
<g id="blue_x2F_grey">
	<g>
		<g>
			<path fill="#1485C7" d="M22.478,45.77c-2.293,2.295-6.014,2.295-8.309,0L0.454,32.055c-0.501-0.504-0.501-1.326,0-1.826
				l1.931-1.932c0.502-0.501,1.324-0.501,1.826,0l12.3,12.301c0.999,1,2.619,1,3.616,0l7.655-7.652c0.998-1,0.998-2.616,0-3.616
				L15.48,17.027c-0.502-0.502-0.502-1.325,0-1.827l1.931-1.93c0.502-0.501,1.324-0.501,1.826,0l13.715,13.714
				c2.294,2.295,2.294,6.017,0,8.311L22.478,45.77z"/>
			<path fill="#1485C7" d="M14.169,1.721c2.295-2.293,6.015-2.293,8.309,0l13.716,13.715c0.502,0.502,0.502,1.324,0,1.826
				l-1.931,1.931c-0.503,0.502-1.325,0.502-1.826,0l-12.301-12.3c-0.999-1-2.618-1-3.616,0l-7.653,7.653
				c-0.998,0.999-0.998,2.617,0,3.616l12.301,12.301c0.503,0.503,0.503,1.325,0,1.826l-1.93,1.932c-0.501,0.504-1.324,0.504-1.826,0
				L3.695,20.503c-2.295-2.294-2.295-6.014,0-8.309L14.169,1.721z"/>
		</g>
	</g>
	<g>
		<path fill="#4E4E4E" d="M46.413,15.239h4.78v9.001c0,1.98,0.711,2.756,2.67,2.756H58.6c1.959,0,2.67-0.775,2.67-2.756v-9.001h4.78
			v10.034c0,3.875-2.002,5.729-6.395,5.729h-6.848c-4.392,0-6.395-1.854-6.395-5.729L46.413,15.239L46.413,15.239z"/>
		<path fill="#4E4E4E" d="M69.494,15.239h14.427c3.682,0,4.672,1.83,4.672,4.629v0.99c0,2.089-0.474,3.317-2.67,3.833v0.043
			c1.422,0.258,2.606,0.883,2.606,3.445v2.647h-4.781v-1.873c0-1.636-0.473-2.175-1.959-2.175h-7.515v4.048h-4.78V15.239
			L69.494,15.239z M74.274,22.905h7.902c1.292,0,1.765-0.517,1.765-1.636v-0.517c0-1.378-0.689-1.636-2.196-1.636h-7.472
			L74.274,22.905L74.274,22.905z"/>
		<path fill="#4E4E4E" d="M92.037,15.239h13.76c3.811,0,5.663,1.034,5.663,4.091c0,2.67-0.969,3.187-2.304,3.575v0.065
			c2.088,0.258,2.863,1.378,2.863,3.725c0,3.426-2.024,4.134-4.759,4.134H92.037V15.239z M96.817,21.418h8.462
			c0.883,0,1.399-0.323,1.399-1.206c0-0.904-0.517-1.228-1.399-1.228h-8.462V21.418z M96.817,27.082h8.57
			c1.034,0,1.722-0.236,1.722-1.141c0-1.057-0.688-1.293-1.722-1.293h-8.57V27.082z"/>
		<path fill="#4E4E4E" d="M122.031,15.239h6.223l8.57,15.589h-5.318l-1.484-2.755h-9.691l-1.399,2.755h-5.34L122.031,15.239z
			 M122.117,24.713h6.115l-3.101-5.857L122.117,24.713z"/>
		<path fill="#4E4E4E" d="M138.738,15.239h7.408l8.979,11.325h0.044V15.239h4.78v15.589h-7.408l-8.979-11.326h-0.043v11.326h-4.781
			V15.239L138.738,15.239z"/>
		<path fill="#4E4E4E" d="M173.965,25.727h4.778c0.022,1.656,0.688,1.785,2.067,1.785h5.857c1.014,0,2.045-0.105,2.045-1.312
			c0-1.356-0.561-1.442-6.719-1.442c-7.191,0-8.01-0.861-8.01-4.694c0-2.821,0.26-4.996,6.287-4.996h6.676
			c5.514,0,6.029,1.874,6.029,4.608v0.496h-4.779c0-1.142-0.131-1.615-2.327-1.615h-5.296c-1.077,0-1.811,0.366-1.811,1.206
			c0,1.356,0.58,1.399,5.705,1.377c7.43-0.021,9.153,0.431,9.153,4.974c0,4.199-1.422,4.89-7.774,4.89h-5.793
			c-4.349,0-6.092-0.819-6.092-4.2v-1.076H173.965z"/>
		<path fill="#4E4E4E" d="M197.045,15.239h4.78v15.589h-4.78V15.239z"/>
		<path fill="#4E4E4E" d="M205.184,20.708c0-4.566,2.562-5.642,6.871-5.642h7.19c5.427,0,6.181,1.959,6.181,4.996v0.495h-4.695
			c0-1.55-0.883-1.744-2.41-1.744h-5.189c-2.41,0-3.035,0.582-3.035,3.251v1.938c0,2.67,0.625,3.251,3.035,3.251h5.104
			c1.248,0,2.498-0.192,2.498-1.7V25.1h-5.942v-3.229h10.724v4.436c0,4.479-2.324,4.694-7.707,4.694h-5.75
			c-4.309,0-6.871-1.077-6.871-5.644v-4.649H205.184z"/>
		<path fill="#4E4E4E" d="M228.611,15.239h7.404l8.979,11.325h0.044V15.239h4.779v15.589h-7.405l-8.979-11.326h-0.043v11.326h-4.779
			V15.239z"/>
	</g>
</g>
</svg>
