<?xml version="1.0" encoding="utf-8"?>
<!-- Generator: Adobe Illustrator 16.0.0, SVG Export Plug-In . SVG Version: 6.00 Build 0)  -->
<!DOCTYPE svg PUBLIC "-//W3C//DTD SVG 1.1//EN" "http://www.w3.org/Graphics/SVG/1.1/DTD/svg11.dtd">
<svg version="1.1" id="Layer_1" xmlns="http://www.w3.org/2000/svg" xmlns:xlink="http://www.w3.org/1999/xlink" x="0px" y="0px"
	 width="200px" height="200px" viewBox="0 0 200 200" enable-background="new 0 0 200 200" xml:space="preserve">
<path fill="none" stroke="#F95D06" stroke-width="10" stroke-linecap="round" stroke-linejoin="round" stroke-miterlimit="10" d="
	M63.058,110.689l-0.522-92.746C62.494,10.591,68.102,4.603,75.45,4.561c7.352-0.042,13.022,5.884,13.064,13.236l0.237,42.158
	l0.066-0.001c0.027,4.841,2.699,9.049,6.639,11.261l-0.001,0.011l65.729,30.402l-0.739-0.336c4.672,1.944,7.971,6.541,8.001,11.923
	l-0.015-0.522l0.161,28.554c0.165,29.451-23.401,53.466-52.854,53.631c-25.515,0.145-44.884-14.955-52.497-35.014
	c-4.428-8.028-40.924-55.111-40.924-55.111c-4.486-5.824-4.511-11.494,0.726-16.653c5.288-5.208,12.591-3.636,18.409,1.391
	L63.058,110.689"/>
</svg>
